<svg width="24" height="24" viewBox="0 0 24 24" fill="none" xmlns="http://www.w3.org/2000/svg">
<path d="M8.54062 22.4813C8.8819 22.3344 9.12094 21.9951 9.12094 21.6V19.008C9.12094 18.9135 9.12862 18.8151 9.14062 18.7152C9.1339 18.7171 9.12766 18.7186 9.12094 18.72C9.12094 18.72 7.68094 18.72 7.39294 18.72C6.67294 18.72 6.04894 18.432 5.76094 17.856C5.42494 17.232 5.28094 16.176 4.41694 15.6C4.27294 15.504 4.36894 15.36 4.65694 15.36C4.94494 15.408 5.56894 15.792 5.95294 16.32C6.38494 16.848 6.81694 17.28 7.58494 17.28C8.7787 17.28 9.41854 17.22 9.8035 17.0136C10.2518 16.3469 10.8725 15.84 11.5209 15.84V15.828C8.8003 15.7407 7.06222 14.8363 6.25294 13.44C4.49374 13.4602 2.96206 13.6344 2.08798 13.7794C2.06014 13.6224 2.03614 13.4645 2.0155 13.3056C2.87806 13.1635 4.34014 12.9951 6.0211 12.9629C5.96734 12.8304 5.92078 12.6946 5.88142 12.5554C4.19614 12.4699 2.74174 12.5367 1.95166 12.6019C1.94206 12.4426 1.9291 12.2837 1.92718 12.1224C2.7187 12.0576 4.13374 11.9928 5.77582 12.0691C5.7379 11.8291 5.71342 11.5839 5.71342 11.3285C5.71342 10.5125 6.00142 9.6485 6.52942 8.9285C6.28942 8.1125 5.95342 6.3845 6.62542 5.7605C7.92142 5.7605 8.83342 6.3845 9.26542 6.7685C10.0809 6.43202 10.9929 6.24002 12.0009 6.24002C13.0089 6.24002 13.9209 6.43202 14.6889 6.76802C15.1209 6.38402 16.0329 5.76002 17.3289 5.76002C18.0489 6.43202 17.6649 8.16002 17.4249 8.92802C17.9529 9.64802 18.2409 10.464 18.1929 11.328C18.1929 11.5603 18.1713 11.7845 18.1401 12.0043C19.8197 11.9218 21.2731 11.988 22.0781 12.0533C22.0771 12.2151 22.0622 12.373 22.0536 12.5328C21.2515 12.4666 19.7616 12.3984 18.0413 12.4901C17.9985 12.6514 17.9467 12.8083 17.8853 12.9605C19.5873 12.9826 21.0845 13.1472 21.9883 13.2912C21.9677 13.4506 21.9437 13.6085 21.9158 13.765C20.9981 13.6181 19.4337 13.4463 17.6539 13.4376C16.8547 14.8191 15.1483 15.72 12.4809 15.8251V15.84C13.7289 15.84 14.8809 17.712 14.8809 19.008V21.6C14.8809 21.9951 15.12 22.3344 15.4613 22.4813C19.8585 21.0259 23.0409 16.8787 23.0409 12C23.0409 5.91266 18.0888 0.960022 12.0009 0.960022C5.9131 0.960022 0.960938 5.91266 0.960938 12C0.960938 16.8787 4.14334 21.0259 8.54062 22.4813Z" fill="#707070"/>
</svg>
