<svg width="20" height="20" viewBox="0 0 20 20" fill="none" xmlns="http://www.w3.org/2000/svg">
<path d="M3.20078 1.20392C1.81278 1.20392 0.804688 2.0357 0.804688 3.1797C0.804688 4.3277 1.83678 5.19611 3.20078 5.19611C4.58878 5.19611 5.59688 4.34826 5.59688 3.15626C5.53288 2.00826 4.54478 1.20392 3.20078 1.20392ZM1.20078 6.00001C0.980781 6.00001 0.800781 6.18001 0.800781 6.40001V18C0.800781 18.22 0.980781 18.4 1.20078 18.4H5.20078C5.42078 18.4 5.60078 18.22 5.60078 18V6.40001C5.60078 6.18001 5.42078 6.00001 5.20078 6.00001H1.20078ZM7.20078 6.00001C6.98078 6.00001 6.80078 6.18001 6.80078 6.40001V18C6.80078 18.22 6.98078 18.4 7.20078 18.4H10.8008C11.0216 18.4 11.2008 18.2208 11.2008 18V12V11.9V11.8C11.2008 10.852 11.929 10.0798 12.857 10.0078C12.905 9.99982 12.9528 10 13.0008 10C13.0488 10 13.0965 9.99982 13.1445 10.0078C14.0725 10.0798 14.8008 10.852 14.8008 11.8V18C14.8008 18.2208 14.98 18.4 15.2008 18.4H18.8008C19.0208 18.4 19.2008 18.22 19.2008 18V11.2C19.2008 8.61201 17.8124 6.00001 14.7164 6.00001C13.3084 6.00001 12.2448 6.54411 11.6008 6.99611V6.40001C11.6008 6.18001 11.4208 6.00001 11.2008 6.00001H7.20078Z" fill="#707070"/>
</svg>
